<?xml version="1.0" encoding="UTF-8" standalone="no"?>
<!DOCTYPE svg PUBLIC "-//W3C//DTD SVG 1.1//EN" "http://www.w3.org/Graphics/SVG/1.1/DTD/svg11.dtd">
<svg xmlns="http://www.w3.org/2000/svg" version="1.1" viewBox="45 -5 240 240" width="512" height="512">
<rect x="45" y="-5" width="240" height="240" fill="#ffffff"/>
<g stroke-width="2.00" fill="none" stroke-linecap="butt">
<path stroke="#9ba3e0" vector-effect="non-scaling-stroke" d="
  M 85.68 140.49
  C 81.24 144.75 76.49 148.40 73.71 153.19
  C 71.23 157.45 70.95 162.93 76.73 164.53
  Q 81.99 165.97 88.85 163.53
  Q 98.81 159.98 107.29 151.77
  Q 108.89 150.22 110.71 149.04"
/>
<path stroke="#9399ca" vector-effect="non-scaling-stroke" d="
  M 110.71 149.04
  L 117.95 148.86
  A 0.47 0.47 0.0 0 1 118.44 149.37
  L 118.13 153.53"
/>
<path stroke="#9ba3e0" vector-effect="non-scaling-stroke" d="
  M 118.13 153.53
  C 116.87 160.32 116.23 172.33 121.54 176.71
  C 127.06 181.26 134.61 176.18 137.95 170.95
  Q 142.37 164.02 145.00 154.82"
/>
<path stroke="#9399ca" vector-effect="non-scaling-stroke" d="
  M 145.00 154.82
  L 146.43 149.51
  A 0.87 0.87 0.0 0 1 147.27 148.86
  L 183.67 148.86
  A 0.68 0.67 81.1 0 1 184.31 149.33
  L 186.44 156.02"
/>
<path stroke="#9ba3e0" vector-effect="non-scaling-stroke" d="
  M 186.44 156.02
  C 188.62 164.05 193.21 174.57 201.10 177.72
  C 205.20 179.36 209.75 177.90 211.48 173.97
  C 214.21 167.76 213.69 161.96 213.16 155.24"
/>
<path stroke="#9399ca" vector-effect="non-scaling-stroke" d="
  M 213.16 155.24
  L 212.53 149.51
  A 0.49 0.48 86.8 0 1 213.01 148.97
  L 220.79 149.07"
/>
<path stroke="#9ba3e0" vector-effect="non-scaling-stroke" d="
  M 220.79 149.07
  C 227.77 156.80 239.95 165.30 250.75 165.10
  C 258.26 164.97 260.72 159.88 257.18 153.49
  C 254.45 148.58 249.53 144.14 245.14 140.82"
/>
<path stroke="#9399ca" vector-effect="non-scaling-stroke" d="
  M 245.14 140.82
  Q 247.25 134.01 243.60 128.18
  Q 206.24 68.57 181.43 28.37
  Q 177.99 22.80 175.73 20.89
  C 169.75 15.86 161.81 15.73 155.60 20.28
  Q 153.17 22.06 148.44 29.76
  Q 126.52 65.41 86.93 128.69
  Q 83.46 134.24 85.68 140.49"
/>
<path stroke="#3341ac" vector-effect="non-scaling-stroke" d="
  M 245.14 140.82
  Q 240.72 149.79 230.17 148.82
  Q 226.96 148.53 220.79 149.07"
/>
<path stroke="#3341ac" vector-effect="non-scaling-stroke" d="
  M 213.16 155.24
  Q 202.22 154.94 191.36 155.28
  Q 189.85 155.33 186.44 156.02"
/>
<path stroke="#3341ac" vector-effect="non-scaling-stroke" d="
  M 145.00 154.82
  Q 134.60 154.60 124.48 154.39
  Q 122.30 154.34 118.13 153.53"
/>
<path stroke="#3341ac" vector-effect="non-scaling-stroke" d="
  M 110.71 149.04
  Q 105.41 148.28 99.75 148.73
  Q 89.87 149.53 85.68 140.49"
/>
<path stroke="#4153ba" vector-effect="non-scaling-stroke" d="
  M 137.44 56.81
  L 118.83 86.67"
/>
<path stroke="#3a48b3" vector-effect="non-scaling-stroke" d="
  M 118.83 86.67
  L 108.02 103.63"
/>
<path stroke="#3341ac" vector-effect="non-scaling-stroke" d="
  M 108.02 103.63
  Q 100.15 116.76 92.12 129.60
  Q 89.78 133.34 90.53 137.66
  A 2.78 2.53 27.5 0 0 90.88 138.61
  Q 93.44 142.91 98.24 144.28
  A 3.48 3.43 -36.7 0 0 99.18 144.41
  C 104.85 144.38 107.69 144.74 112.74 144.42
  Q 114.92 144.29 121.25 144.60
  C 126.54 144.86 132.89 144.39 139.24 144.51
  Q 157.44 144.85 180.97 144.56
  C 182.99 144.54 185.12 144.80 187.81 144.76
  Q 198.25 144.59 209.50 144.51
  Q 229.80 144.35 231.52 144.26
  A 3.89 3.75 -54.9 0 0 232.50 144.07
  Q 237.17 142.46 237.92 141.63
  Q 242.95 136.03 239.38 130.36
  Q 232.53 119.48 225.74 108.39"
/>
<path stroke="#3a48b3" vector-effect="non-scaling-stroke" d="
  M 225.74 108.39
  L 211.80 86.43"
/>
<path stroke="#4153ba" vector-effect="non-scaling-stroke" d="
  M 211.80 86.43
  L 192.19 55.43"
/>
<path stroke="#4a61bf" vector-effect="non-scaling-stroke" d="
  M 192.19 55.43
  Q 184.22 42.58 176.13 29.88
  C 172.02 23.44 163.65 22.11 157.64 26.32
  Q 155.74 27.65 151.76 34.03
  Q 144.59 45.53 137.44 56.81"
/>
<path stroke="#607de3" vector-effect="non-scaling-stroke" d="
  M 192.19 55.43
  Q 164.92 59.79 137.44 56.81"
/>
<path stroke="#5064d7" vector-effect="non-scaling-stroke" d="
  M 211.80 86.43
  Q 200.33 90.13 188.62 92.20"
/>
<path stroke="#2d3c85" vector-effect="non-scaling-stroke" d="
  M 188.62 92.20
  Q 191.25 85.45 187.90 79.64
  C 186.46 77.16 183.20 76.16 180.86 78.32
  C 177.44 81.49 177.08 87.25 178.38 91.42"
/>
<path stroke="#5064d7" vector-effect="non-scaling-stroke" d="
  M 178.38 91.42
  Q 165.04 93.08 151.69 92.98"
/>
<path stroke="#2d3c85" vector-effect="non-scaling-stroke" d="
  M 151.69 92.98
  Q 154.55 86.98 151.88 80.78
  C 150.18 76.81 145.76 75.57 143.21 79.65
  Q 140.02 84.72 141.60 90.70"
/>
<path stroke="#5064d7" vector-effect="non-scaling-stroke" d="
  M 141.60 90.70
  L 118.83 86.67"
/>
<path stroke="#26317e" vector-effect="non-scaling-stroke" d="
  M 151.69 92.98
  C 148.45 98.89 142.78 96.04 141.60 90.70"
/>
<path stroke="#4252c9" vector-effect="non-scaling-stroke" d="
  M 225.74 108.39
  C 209.19 113.34 193.11 113.45 176.09 111.92"
/>
<path stroke="#252e71" vector-effect="non-scaling-stroke" d="
  M 176.09 111.92
  Q 178.93 110.40 178.56 108.31
  A 1.53 1.51 -21.4 0 0 176.24 107.32
  C 168.15 112.41 162.52 112.38 154.53 107.23
  A 1.53 1.53 0.0 0 0 152.26 107.97
  Q 151.68 109.51 153.14 110.70"
/>
<path stroke="#4252c9" vector-effect="non-scaling-stroke" d="
  M 153.14 110.70
  Q 130.31 110.25 108.02 103.63"
/>
<path stroke="#26317e" vector-effect="non-scaling-stroke" d="
  M 188.62 92.20
  C 185.97 98.37 180.17 97.18 178.38 91.42"
/>
<path stroke="#1e276a" vector-effect="non-scaling-stroke" d="
  M 153.14 110.70
  Q 164.30 119.14 176.09 111.92"
/>
</g>
<path fill="#fbfbfe" d="
  M 300.00 0.00
  L 300.00 242.00
  L 0.00 242.00
  L 0.00 0.00
  L 300.00 0.00
  Z
  M 85.68 140.49
  C 81.24 144.75 76.49 148.40 73.71 153.19
  C 71.23 157.45 70.95 162.93 76.73 164.53
  Q 81.99 165.97 88.85 163.53
  Q 98.81 159.98 107.29 151.77
  Q 108.89 150.22 110.71 149.04
  L 117.95 148.86
  A 0.47 0.47 0.0 0 1 118.44 149.37
  L 118.13 153.53
  C 116.87 160.32 116.23 172.33 121.54 176.71
  C 127.06 181.26 134.61 176.18 137.95 170.95
  Q 142.37 164.02 145.00 154.82
  L 146.43 149.51
  A 0.87 0.87 0.0 0 1 147.27 148.86
  L 183.67 148.86
  A 0.68 0.67 81.1 0 1 184.31 149.33
  L 186.44 156.02
  C 188.62 164.05 193.21 174.57 201.10 177.72
  C 205.20 179.36 209.75 177.90 211.48 173.97
  C 214.21 167.76 213.69 161.96 213.16 155.24
  L 212.53 149.51
  A 0.49 0.48 86.8 0 1 213.01 148.97
  L 220.79 149.07
  C 227.77 156.80 239.95 165.30 250.75 165.10
  C 258.26 164.97 260.72 159.88 257.18 153.49
  C 254.45 148.58 249.53 144.14 245.14 140.82
  Q 247.25 134.01 243.60 128.18
  Q 206.24 68.57 181.43 28.37
  Q 177.99 22.80 175.73 20.89
  C 169.75 15.86 161.81 15.73 155.60 20.28
  Q 153.17 22.06 148.44 29.76
  Q 126.52 65.41 86.93 128.69
  Q 83.46 134.24 85.68 140.49
  Z"
/>
<path fill="#2b3796" d="
  M 245.14 140.82
  Q 240.72 149.79 230.17 148.82
  Q 226.96 148.53 220.79 149.07
  L 213.01 148.97
  A 0.49 0.48 86.8 0 0 212.53 149.51
  L 213.16 155.24
  Q 202.22 154.94 191.36 155.28
  Q 189.85 155.33 186.44 156.02
  L 184.31 149.33
  A 0.68 0.67 81.1 0 0 183.67 148.86
  L 147.27 148.86
  A 0.87 0.87 0.0 0 0 146.43 149.51
  L 145.00 154.82
  Q 134.60 154.60 124.48 154.39
  Q 122.30 154.34 118.13 153.53
  L 118.44 149.37
  A 0.47 0.47 0.0 0 0 117.95 148.86
  L 110.71 149.04
  Q 105.41 148.28 99.75 148.73
  Q 89.87 149.53 85.68 140.49
  Q 83.46 134.24 86.93 128.69
  Q 126.52 65.41 148.44 29.76
  Q 153.17 22.06 155.60 20.28
  C 161.81 15.73 169.75 15.86 175.73 20.89
  Q 177.99 22.80 181.43 28.37
  Q 206.24 68.57 243.60 128.18
  Q 247.25 134.01 245.14 140.82
  Z
  M 137.44 56.81
  L 118.83 86.67
  L 108.02 103.63
  Q 100.15 116.76 92.12 129.60
  Q 89.78 133.34 90.53 137.66
  A 2.78 2.53 27.5 0 0 90.88 138.61
  Q 93.44 142.91 98.24 144.28
  A 3.48 3.43 -36.7 0 0 99.18 144.41
  C 104.85 144.38 107.69 144.74 112.74 144.42
  Q 114.92 144.29 121.25 144.60
  C 126.54 144.86 132.89 144.39 139.24 144.51
  Q 157.44 144.85 180.97 144.56
  C 182.99 144.54 185.12 144.80 187.81 144.76
  Q 198.25 144.59 209.50 144.51
  Q 229.80 144.35 231.52 144.26
  A 3.89 3.75 -54.9 0 0 232.50 144.07
  Q 237.17 142.46 237.92 141.63
  Q 242.95 136.03 239.38 130.36
  Q 232.53 119.48 225.74 108.39
  L 211.80 86.43
  L 192.19 55.43
  Q 184.22 42.58 176.13 29.88
  C 172.02 23.44 163.65 22.11 157.64 26.32
  Q 155.74 27.65 151.76 34.03
  Q 144.59 45.53 137.44 56.81
  Z"
/>
<path fill="#688ae8" d="
  M 192.19 55.43
  Q 164.92 59.79 137.44 56.81
  Q 144.59 45.53 151.76 34.03
  Q 155.74 27.65 157.64 26.32
  C 163.65 22.11 172.02 23.44 176.13 29.88
  Q 184.22 42.58 192.19 55.43
  Z"
/>
<path fill="#576fdd" d="
  M 211.80 86.43
  Q 200.33 90.13 188.62 92.20
  Q 191.25 85.45 187.90 79.64
  C 186.46 77.16 183.20 76.16 180.86 78.32
  C 177.44 81.49 177.08 87.25 178.38 91.42
  Q 165.04 93.08 151.69 92.98
  Q 154.55 86.98 151.88 80.78
  C 150.18 76.81 145.76 75.57 143.21 79.65
  Q 140.02 84.72 141.60 90.70
  L 118.83 86.67
  L 137.44 56.81
  Q 164.92 59.79 192.19 55.43
  L 211.80 86.43
  Z"
/>
<path fill="#03082c" d="
  M 151.69 92.98
  C 148.45 98.89 142.78 96.04 141.60 90.70
  Q 140.02 84.72 143.21 79.65
  C 145.76 75.57 150.18 76.81 151.88 80.78
  Q 154.55 86.98 151.69 92.98
  Z"
/>
<path fill="#03082c" d="
  M 188.62 92.20
  C 185.97 98.37 180.17 97.18 178.38 91.42
  C 177.08 87.25 177.44 81.49 180.86 78.32
  C 183.20 76.16 186.46 77.16 187.90 79.64
  Q 191.25 85.45 188.62 92.20
  Z"
/>
<path fill="#4859d0" d="
  M 225.74 108.39
  C 209.19 113.34 193.11 113.45 176.09 111.92
  Q 178.93 110.40 178.56 108.31
  A 1.53 1.51 -21.4 0 0 176.24 107.32
  C 168.15 112.41 162.52 112.38 154.53 107.23
  A 1.53 1.53 0.0 0 0 152.26 107.97
  Q 151.68 109.51 153.14 110.70
  Q 130.31 110.25 108.02 103.63
  L 118.83 86.67
  L 141.60 90.70
  C 142.78 96.04 148.45 98.89 151.69 92.98
  Q 165.04 93.08 178.38 91.42
  C 180.17 97.18 185.97 98.37 188.62 92.20
  Q 200.33 90.13 211.80 86.43
  L 225.74 108.39
  Z"
/>
<path fill="#3b4ac2" d="
  M 153.14 110.70
  Q 164.30 119.14 176.09 111.92
  C 193.11 113.45 209.19 113.34 225.74 108.39
  Q 232.53 119.48 239.38 130.36
  Q 242.95 136.03 237.92 141.63
  Q 237.17 142.46 232.50 144.07
  A 3.89 3.75 -54.9 0 1 231.52 144.26
  Q 229.80 144.35 209.50 144.51
  Q 198.25 144.59 187.81 144.76
  C 185.12 144.80 182.99 144.54 180.97 144.56
  Q 157.44 144.85 139.24 144.51
  C 132.89 144.39 126.54 144.86 121.25 144.60
  Q 114.92 144.29 112.74 144.42
  C 107.69 144.74 104.85 144.38 99.18 144.41
  A 3.48 3.43 -36.7 0 1 98.24 144.28
  Q 93.44 142.91 90.88 138.61
  A 2.78 2.53 27.5 0 1 90.53 137.66
  Q 89.78 133.34 92.12 129.60
  Q 100.15 116.76 108.02 103.63
  Q 130.31 110.25 153.14 110.70
  Z"
/>
<path fill="#010311" d="
  M 176.09 111.92
  Q 164.30 119.14 153.14 110.70
  Q 151.68 109.51 152.26 107.97
  A 1.53 1.53 0.0 0 1 154.53 107.23
  C 162.52 112.38 168.15 112.41 176.24 107.32
  A 1.53 1.51 -21.4 0 1 178.56 108.31
  Q 178.93 110.40 176.09 111.92
  Z"
/>
<path fill="#3b4ac2" d="
  M 85.68 140.49
  Q 89.87 149.53 99.75 148.73
  Q 105.41 148.28 110.71 149.04
  Q 108.89 150.22 107.29 151.77
  Q 98.81 159.98 88.85 163.53
  Q 81.99 165.97 76.73 164.53
  C 70.95 162.93 71.23 157.45 73.71 153.19
  C 76.49 148.40 81.24 144.75 85.68 140.49
  Z"
/>
<path fill="#3b4ac2" d="
  M 245.14 140.82
  C 249.53 144.14 254.45 148.58 257.18 153.49
  C 260.72 159.88 258.26 164.97 250.75 165.10
  C 239.95 165.30 227.77 156.80 220.79 149.07
  Q 226.96 148.53 230.17 148.82
  Q 240.72 149.79 245.14 140.82
  Z"
/>
<path fill="#3b4ac2" d="
  M 145.00 154.82
  Q 142.37 164.02 137.95 170.95
  C 134.61 176.18 127.06 181.26 121.54 176.71
  C 116.23 172.33 116.87 160.32 118.13 153.53
  Q 122.30 154.34 124.48 154.39
  Q 134.60 154.60 145.00 154.82
  Z"
/>
<path fill="#3b4ac2" d="
  M 213.16 155.24
  C 213.69 161.96 214.21 167.76 211.48 173.97
  C 209.75 177.90 205.20 179.36 201.10 177.72
  C 193.21 174.57 188.62 164.05 186.44 156.02
  Q 189.85 155.33 191.36 155.28
  Q 202.22 154.94 213.16 155.24
  Z"
/>
</svg>
